<svg xmlns="http://www.w3.org/2000/svg" viewBox="0 0 205 250" width="205" height="250">
	<style>
		tspan { white-space:pre }
		.shp0 { fill: #ffffff } 
		.shp1 { fill: #2a3885 } 
		.shp2 { fill: #fcd206 } 
		.shp3 { fill: #1d1c1a } 
	</style>
	<g >
		<path class="shp0" d="M0.03 62.03C0.06 119.01 0.07 124.24 0.23 126.4C0.32 127.69 0.45 129.36 0.5 130.1C0.56 130.84 0.72 132.44 0.85 133.65C0.98 134.86 1.21 136.66 1.35 137.65C1.49 138.64 1.7 139.99 1.81 140.65C1.92 141.31 2.14 142.55 2.31 143.4C2.47 144.25 2.72 145.47 2.86 146.1C3 146.73 3.31 148.06 3.56 149.05C3.8 150.04 4.14 151.34 4.31 151.95C4.48 152.56 4.9 153.97 5.25 155.1C5.61 156.23 6.16 157.89 6.48 158.8C6.81 159.71 7.41 161.31 7.83 162.35C8.24 163.4 8.96 165.11 9.43 166.15C9.89 167.2 10.79 169.09 11.42 170.35C12.05 171.62 13.06 173.53 13.65 174.6C14.25 175.67 15.06 177.09 15.45 177.75C15.84 178.41 16.52 179.51 16.95 180.2C17.38 180.89 18.36 182.4 19.13 183.55C19.9 184.71 21.12 186.46 21.83 187.45C22.55 188.44 23.62 189.9 24.23 190.7C24.84 191.5 25.94 192.92 26.69 193.85C27.43 194.78 28.6 196.23 29.29 197.05C29.98 197.88 31.45 199.59 32.56 200.85C33.67 202.12 35.22 203.85 36 204.7C36.79 205.55 38.53 207.4 39.86 208.8C41.2 210.2 43.37 212.37 44.67 213.61C45.98 214.85 47.61 216.38 48.3 217.01C48.99 217.64 50.21 218.72 51 219.41C51.8 220.1 53.01 221.13 53.7 221.71C54.39 222.28 55.72 223.36 56.65 224.11C57.59 224.85 59.09 226.03 60 226.72C60.91 227.41 62.75 228.76 64.1 229.72C65.45 230.68 67.36 232.01 68.35 232.67C69.34 233.33 70.89 234.34 71.8 234.92C72.71 235.49 74.24 236.44 75.2 237.02C76.16 237.6 77.69 238.5 78.6 239.02C79.51 239.55 81.11 240.44 82.15 241C83.2 241.57 85.33 242.67 86.9 243.46C88.47 244.24 90.74 245.33 91.95 245.88C93.16 246.43 94.8 247.14 95.6 247.47C96.4 247.8 97.57 248.28 98.2 248.53C98.83 248.77 100.01 249.21 100.83 249.49C101.64 249.77 102.38 250 102.48 250C102.57 250 103.28 249.8 104.05 249.54C104.82 249.29 106.31 248.74 107.35 248.33C108.4 247.92 109.72 247.38 110.3 247.13C110.88 246.89 112.2 246.3 113.25 245.82C114.3 245.35 116.48 244.3 118.1 243.49C119.72 242.68 121.45 241.8 121.95 241.53C122.45 241.26 123.25 240.82 123.75 240.55C124.25 240.29 125.66 239.48 126.9 238.77C128.14 238.05 130.03 236.93 131.1 236.27C132.17 235.61 134.15 234.34 135.5 233.45C136.85 232.57 138.72 231.31 139.65 230.65C140.59 230 142.12 228.9 143.05 228.21C143.98 227.52 145.65 226.26 146.75 225.4C147.85 224.55 149.54 223.2 150.5 222.41C151.46 221.61 152.88 220.42 153.65 219.76C154.42 219.09 155.52 218.12 156.1 217.6C156.68 217.08 158.1 215.77 159.25 214.69C160.41 213.61 162.34 211.72 163.55 210.49C164.76 209.26 166.61 207.33 167.65 206.2C168.7 205.07 169.98 203.68 170.51 203.1C171.03 202.52 172.09 201.33 172.86 200.45C173.63 199.57 174.93 198.04 175.76 197.05C176.59 196.06 178 194.31 178.91 193.15C179.82 192 180.9 190.6 181.31 190.05C181.73 189.5 182.54 188.4 183.12 187.6C183.69 186.8 184.64 185.45 185.22 184.6C185.8 183.75 186.77 182.28 187.37 181.35C187.97 180.42 188.89 178.93 189.42 178.05C189.94 177.17 190.84 175.62 191.4 174.6C191.97 173.58 192.98 171.65 193.65 170.3C194.33 168.95 195.21 167.09 195.63 166.15C196.04 165.22 196.59 163.93 196.85 163.3C197.11 162.67 197.56 161.5 197.87 160.7C198.17 159.9 198.73 158.33 199.11 157.2C199.5 156.07 200.05 154.32 200.35 153.3C200.65 152.28 201.1 150.64 201.35 149.65C201.6 148.66 201.98 147.04 202.2 146.05C202.41 145.06 202.67 143.78 202.78 143.2C202.9 142.62 203.08 141.61 203.19 140.95C203.31 140.29 203.51 139.01 203.64 138.1C203.78 137.19 204 135.42 204.14 134.15C204.28 132.88 204.42 131.6 204.45 131.3C204.48 131 204.61 129.51 204.72 128L204.94 125.25L204.99 0L0 0L0.03 62.03Z" />
		<path class="shp1" d="M2.95 2.97C2.9 3 2.87 29 2.88 60.74C2.9 95.5 2.94 119.78 3 121.8C3.05 123.64 3.12 125.47 3.15 125.85C3.17 126.23 3.22 126.95 3.25 127.45C3.28 127.95 3.35 128.91 3.41 129.6C3.46 130.29 3.59 131.73 3.7 132.8C3.81 133.87 4 135.43 4.11 136.25C4.22 137.08 4.46 138.7 4.65 139.85C4.84 141 5.18 142.85 5.4 143.95C5.63 145.05 6.03 146.86 6.31 147.97C6.58 149.09 7.09 151 7.45 152.22C7.8 153.45 8.34 155.17 8.64 156.05C8.93 156.93 9.36 158.15 9.58 158.75C9.8 159.36 10.31 160.68 10.73 161.7C11.14 162.72 11.74 164.13 12.05 164.85C12.37 165.57 13.11 167.14 13.69 168.35C14.28 169.56 15.19 171.34 15.72 172.3C16.24 173.26 17.07 174.73 17.55 175.55C18.03 176.38 18.88 177.77 19.43 178.65C19.98 179.53 21.08 181.22 21.88 182.4C22.68 183.58 23.9 185.34 24.6 186.3C25.3 187.26 26.44 188.79 27.14 189.7C27.84 190.61 29.12 192.23 30 193.3C30.87 194.37 32.2 195.97 32.95 196.85C33.7 197.73 34.98 199.19 35.78 200.1C36.59 201 38.15 202.71 39.24 203.9C40.34 205.08 42.66 207.47 44.39 209.21C46.13 210.95 48.43 213.17 49.5 214.15C50.57 215.13 52.42 216.76 53.6 217.78C54.78 218.79 56.63 220.33 57.7 221.19C58.77 222.05 60.15 223.14 60.75 223.61C61.35 224.07 62.62 225.02 63.55 225.71C64.48 226.4 65.92 227.44 66.75 228.02C67.58 228.6 69.26 229.75 70.5 230.57C71.74 231.39 73.58 232.59 74.6 233.22C75.62 233.85 77.34 234.9 78.43 235.54C79.51 236.18 81.42 237.26 82.68 237.95C83.93 238.65 86.37 239.92 88.1 240.78C89.83 241.65 92.08 242.74 93.1 243.19C94.12 243.65 95.54 244.27 96.25 244.57C96.97 244.87 98.07 245.32 98.7 245.57C99.33 245.82 100.46 246.24 101.2 246.5L102.55 246.98C104.64 246.24 105.95 245.74 106.8 245.4C107.65 245.06 109 244.5 109.8 244.15C110.6 243.8 111.77 243.29 112.4 243C113.03 242.72 114.81 241.86 116.35 241.1C117.89 240.34 120.1 239.2 121.25 238.57C122.41 237.95 124.16 236.97 125.15 236.4C126.14 235.83 127.85 234.82 128.95 234.15C130.05 233.48 131.74 232.42 132.7 231.8C133.66 231.18 135.15 230.2 136 229.62C136.85 229.04 138.34 228 139.3 227.31C140.26 226.63 141.93 225.4 143 224.6C144.07 223.79 145.78 222.46 146.8 221.65C147.82 220.83 149.35 219.58 150.2 218.86C151.05 218.14 152.36 217.01 153.1 216.36C153.84 215.7 154.99 214.67 155.65 214.06C156.31 213.45 157.77 212.07 158.89 211C160.01 209.93 162.01 207.9 163.34 206.5C164.68 205.1 166.37 203.3 167.1 202.5C167.84 201.7 169.23 200.15 170.19 199.04C171.16 197.94 172.52 196.37 173.21 195.54C173.9 194.72 175.13 193.22 175.95 192.2C176.77 191.18 178.21 189.32 179.15 188.05C180.1 186.78 181.54 184.78 182.36 183.6C183.18 182.42 184.39 180.59 185.06 179.55C185.72 178.5 186.73 176.86 187.3 175.9C187.86 174.94 188.75 173.36 189.28 172.4C189.8 171.44 190.53 170.04 190.9 169.3C191.27 168.56 191.9 167.25 192.3 166.4C192.69 165.55 193.31 164.15 193.67 163.3C194.03 162.45 194.64 160.94 195.02 159.95C195.4 158.96 196.02 157.23 196.4 156.1C196.78 154.97 197.33 153.2 197.64 152.15C197.94 151.1 198.39 149.44 198.64 148.45C198.89 147.46 199.29 145.68 199.54 144.5C199.78 143.32 200.14 141.41 200.34 140.25C200.53 139.09 200.8 137.3 200.94 136.25C201.08 135.21 201.26 133.7 201.34 132.9C201.42 132.1 201.54 130.93 201.59 130.3C201.65 129.67 201.72 128.78 201.75 128.33C201.78 127.87 201.82 127.15 201.85 126.73C201.88 126.3 201.95 124.92 202 123.65C202.06 122.26 202.1 97.9 202.1 62.13L202.1 2.9C47.82 2.9 3 2.93 2.95 2.97Z" />
		<path class="shp2" d="M10.6 26.6L10.6 42.2L194.5 42.2L194.5 11L10.6 11L10.6 26.6Z" />
		<path class="shp1" d="M111.75 15.26C111.37 15.34 110.71 15.56 110.3 15.76C109.76 16.02 109.36 16.31 108.89 16.78C108.53 17.15 108.07 17.74 107.88 18.1C107.68 18.46 107.41 19.11 107.27 19.55C107.13 19.99 106.97 20.67 106.91 21.05C106.84 21.44 106.75 22.31 106.71 23C106.66 23.69 106.63 25.38 106.63 26.75C106.63 28.13 106.66 29.79 106.71 30.45C106.76 31.11 106.84 31.96 106.9 32.35C106.96 32.74 107.1 33.38 107.21 33.77C107.31 34.17 107.55 34.8 107.73 35.17C107.93 35.6 108.27 36.07 108.65 36.45C109.04 36.84 109.52 37.18 110 37.42C110.41 37.63 111.04 37.88 111.4 37.97C111.88 38.1 112.43 38.15 113.5 38.15C114.69 38.14 115.09 38.1 115.73 37.92C116.15 37.8 116.78 37.56 117.13 37.39C117.49 37.2 118 36.82 118.35 36.46C118.74 36.07 119.09 35.58 119.33 35.1C119.53 34.69 119.79 33.99 119.9 33.55C120.01 33.11 120.11 32.36 120.12 31.89L120.15 31.02C119.45 30.93 118.54 30.9 117.68 30.9C116.2 30.9 116.09 30.91 116 31.1C115.95 31.21 115.9 31.5 115.9 31.75C115.9 32 115.85 32.44 115.79 32.73C115.73 33.01 115.57 33.46 115.44 33.73C115.29 34.02 115.05 34.3 114.78 34.48C114.42 34.71 114.26 34.75 113.66 34.75C113.13 34.75 112.86 34.69 112.6 34.54C112.41 34.43 112.11 34.16 111.95 33.94C111.78 33.73 111.57 33.3 111.47 33C111.38 32.7 111.26 32.02 111.21 31.5C111.15 30.98 111.13 28.57 111.14 26.15C111.17 23.35 111.22 21.51 111.29 21.1C111.36 20.74 111.5 20.25 111.61 20C111.72 19.75 111.93 19.42 112.08 19.27C112.23 19.11 112.52 18.9 112.73 18.79C112.96 18.67 113.31 18.6 113.65 18.6C113.97 18.6 114.36 18.67 114.57 18.78C114.77 18.87 115.06 19.11 115.22 19.3C115.37 19.49 115.57 19.85 115.65 20.1C115.74 20.35 115.84 20.88 115.88 21.28C115.92 21.75 116 22.04 116.1 22.1C116.18 22.15 117.05 22.2 118.02 22.2C119.57 22.2 119.81 22.18 119.96 22.03C120.1 21.88 120.12 21.73 120.06 21.05C120.02 20.61 119.92 19.94 119.84 19.55C119.75 19.17 119.55 18.58 119.39 18.25C119.23 17.92 118.91 17.43 118.67 17.15C118.43 16.88 117.95 16.46 117.59 16.22C117.24 15.98 116.7 15.7 116.4 15.58C116.1 15.47 115.47 15.32 115 15.24C114.53 15.16 113.77 15.1 113.3 15.11C112.83 15.11 112.13 15.18 111.75 15.26ZM156.2 15.25C155.84 15.32 155.35 15.46 155.1 15.56C154.85 15.66 154.47 15.85 154.25 15.99C154.03 16.12 153.63 16.44 153.37 16.69C153.1 16.94 152.68 17.46 152.45 17.85C152.21 18.23 151.88 18.96 151.71 19.45C151.55 19.95 151.37 20.69 151.31 21.1C151.25 21.51 151.16 22.54 151.1 23.38C151.05 24.21 151 25.74 151 26.78C151 27.81 151.05 29.3 151.1 30.1C151.16 30.9 151.25 31.89 151.31 32.3C151.37 32.71 151.5 33.39 151.62 33.8C151.73 34.21 151.98 34.86 152.19 35.25C152.39 35.64 152.8 36.2 153.1 36.5C153.44 36.84 153.94 37.19 154.4 37.42C154.81 37.63 155.44 37.88 155.8 37.97C156.27 38.1 156.84 38.15 157.85 38.15C158.9 38.15 159.44 38.1 160 37.96C160.41 37.86 161.04 37.63 161.4 37.46C161.82 37.26 162.28 36.92 162.71 36.5C163.21 36.01 163.47 35.64 163.78 35C164 34.53 164.25 33.84 164.33 33.45C164.42 33.06 164.52 32.37 164.55 31.9L164.62 31.05C163.87 30.93 162.95 30.9 162.1 30.9C161.25 30.9 160.5 30.94 160.44 30.98C160.38 31.02 160.32 31.32 160.31 31.65C160.3 31.98 160.25 32.48 160.19 32.75C160.14 33.02 159.97 33.47 159.82 33.75C159.67 34.02 159.39 34.35 159.2 34.47C159.01 34.6 158.67 34.73 158.45 34.76C158.23 34.8 157.8 34.76 157.5 34.69C157.08 34.59 156.85 34.46 156.53 34.13C156.2 33.8 156.05 33.54 155.9 33.02C155.79 32.65 155.66 31.86 155.6 31.25C155.55 30.64 155.5 28.73 155.5 27C155.5 25.27 155.55 23.2 155.6 22.4C155.66 21.6 155.76 20.73 155.84 20.45C155.92 20.18 156.14 19.75 156.32 19.5C156.51 19.25 156.84 18.95 157.06 18.83C157.34 18.67 157.62 18.6 158.03 18.6C158.37 18.6 158.75 18.67 158.97 18.78C159.17 18.87 159.46 19.11 159.62 19.3C159.78 19.49 160 19.94 160.11 20.3C160.21 20.66 160.3 21.16 160.3 21.43C160.3 21.72 160.36 21.96 160.45 22.05C160.57 22.17 160.95 22.2 162.58 22.2L164.55 22.2C164.43 20.61 164.33 19.86 164.24 19.5C164.16 19.14 163.96 18.58 163.79 18.25C163.63 17.92 163.29 17.41 163.02 17.11C162.76 16.81 162.28 16.39 161.95 16.18C161.62 15.97 161.1 15.7 160.8 15.59C160.5 15.47 159.87 15.32 159.4 15.24C158.93 15.16 158.17 15.1 157.7 15.11C157.23 15.11 156.56 15.18 156.2 15.25ZM180.5 15.25C180.14 15.33 179.53 15.55 179.15 15.74C178.77 15.94 178.19 16.3 177.88 16.55C177.53 16.82 177.12 17.28 176.83 17.73C176.57 18.12 176.24 18.81 176.09 19.25C175.94 19.69 175.75 20.48 175.66 21C175.57 21.52 175.45 22.4 175.38 22.95C175.31 23.54 175.26 25.2 175.26 27C175.26 29.28 175.31 30.35 175.43 31.25C175.52 31.91 175.69 32.81 175.8 33.25C175.91 33.69 176.16 34.37 176.34 34.75C176.53 35.14 176.92 35.71 177.21 36.04C177.51 36.36 178.04 36.82 178.4 37.05C178.76 37.29 179.39 37.6 179.8 37.73C180.21 37.87 181 38.04 181.55 38.1C182.29 38.19 182.77 38.19 183.4 38.11C183.87 38.05 184.52 37.91 184.85 37.8C185.18 37.68 185.7 37.46 186 37.29C186.3 37.13 186.77 36.81 187.04 36.57C187.31 36.34 187.75 35.84 188.02 35.45C188.35 34.98 188.6 34.45 188.8 33.83C188.97 33.32 189.17 32.51 189.25 32.02C189.34 31.54 189.45 30.43 189.51 29.55C189.58 28.6 189.6 26.81 189.56 25.15C189.53 23.49 189.44 21.92 189.35 21.3C189.27 20.72 189.1 19.96 188.99 19.6C188.87 19.24 188.61 18.64 188.42 18.25C188.19 17.78 187.85 17.33 187.39 16.88C186.91 16.41 186.48 16.09 185.98 15.86C185.58 15.67 184.98 15.44 184.65 15.34C184.26 15.24 183.54 15.16 182.6 15.14C181.57 15.11 180.96 15.15 180.5 15.25ZM33.05 15.72C33.03 15.79 32.67 17.18 32.26 18.8C31.85 20.42 30.64 25.24 29.56 29.5C28.49 33.76 27.6 37.33 27.58 37.43C27.55 37.59 27.69 37.61 29.69 37.61C30.86 37.61 31.85 37.58 31.89 37.54C31.92 37.51 32.18 36.48 32.45 35.26L32.96 33.05L37.85 33.05L38.85 37.61C43 37.6 43.15 37.59 43.13 37.43C43.12 37.33 42.91 36.37 42.66 35.3C42.42 34.23 41.75 31.35 41.19 28.9C40.63 26.45 39.72 22.47 39.16 20.05L38.15 15.65C33.66 15.6 33.09 15.62 33.05 15.72ZM87.11 15.98C87.05 16.18 86.38 18.87 85.6 21.95C84.82 25.03 83.63 29.77 82.94 32.48C82.26 35.18 81.7 37.46 81.7 37.52C81.7 37.62 82.17 37.64 83.87 37.6L86.05 37.55C86.85 34.14 87.09 33.12 87.09 33.08C87.1 33.03 88.2 33 89.55 33C90.9 33 92 33.03 92 33.08C92 33.12 92.21 34.12 92.46 35.3C92.72 36.48 92.95 37.48 92.99 37.53C93.02 37.57 93.99 37.6 95.14 37.61C96.29 37.61 97.24 37.6 97.26 37.58C97.28 37.56 96.85 35.59 96.31 33.2C95.76 30.81 94.72 26.29 94.01 23.15C93.29 20.02 92.6 17.03 92.47 16.52L92.25 15.6L87.21 15.6L87.11 15.98ZM126.25 15.73C126.23 15.79 125.35 19.27 124.3 23.45C123.25 27.63 122.03 32.46 121.59 34.18C121.16 35.89 120.8 37.38 120.8 37.48C120.8 37.64 120.96 37.65 122.92 37.63C124.09 37.62 125.06 37.58 125.1 37.55C125.13 37.51 125.38 36.48 125.66 35.27L126.16 33.05L131.05 33L132.05 37.61C135.52 37.64 136.31 37.61 136.33 37.55C136.35 37.49 136.13 36.41 135.84 35.15C135.55 33.89 135.06 31.77 134.76 30.45C134.45 29.13 133.66 25.69 133 22.8C132.34 19.91 131.7 17.11 131.57 16.58L131.35 15.6C126.89 15.6 126.28 15.63 126.25 15.73ZM15.51 26.64L15.5 37.6C18.6 37.6 19.53 37.61 19.58 37.63C19.62 37.64 19.67 35.74 19.7 33.4L19.75 29.15C22.8 29.05 23.68 28.97 24.1 28.86C24.46 28.77 25.11 28.52 25.55 28.31C26.13 28.03 26.5 27.76 26.9 27.34C27.22 27 27.62 26.43 27.83 26C28.03 25.59 28.29 24.89 28.4 24.45C28.51 24.01 28.62 23.22 28.64 22.7C28.66 22.18 28.63 21.44 28.58 21.05C28.53 20.67 28.38 20.02 28.24 19.63C28.11 19.23 27.84 18.65 27.65 18.35C27.46 18.05 27.09 17.6 26.83 17.35C26.56 17.1 26.06 16.74 25.7 16.55C25.34 16.37 24.67 16.11 24.2 15.99C23.41 15.78 23.08 15.77 19.43 15.73L15.52 15.68L15.51 26.64ZM45.22 26.65L45.25 37.61L49.45 37.61L49.5 28.6C52.21 28.65 52.73 28.7 52.94 28.8C53.1 28.88 53.32 29.13 53.44 29.35C53.64 29.73 53.65 29.88 53.65 32.95C53.66 35.71 53.68 36.23 53.84 36.75C53.93 37.08 54.04 37.41 54.08 37.48C54.13 37.58 54.64 37.61 56.35 37.6C57.56 37.59 58.56 37.57 58.58 37.54C58.59 37.52 58.49 37.31 58.35 37.08C58.22 36.84 58.03 36.31 57.95 35.9C57.82 35.3 57.8 34.6 57.82 32.3C57.84 29.85 57.82 29.37 57.68 28.9C57.59 28.6 57.36 28.13 57.18 27.86C56.98 27.56 56.61 27.21 56.22 26.96C55.88 26.73 55.6 26.52 55.6 26.48C55.6 26.43 55.75 26.31 55.93 26.21C56.1 26.1 56.46 25.79 56.73 25.51C56.99 25.23 57.32 24.74 57.46 24.43C57.6 24.11 57.78 23.56 57.86 23.2C57.93 22.84 58 22.21 58 21.8C58 21.39 57.93 20.67 57.84 20.2C57.75 19.73 57.52 19.01 57.33 18.6C57.1 18.11 56.79 17.65 56.42 17.27C56.09 16.94 55.57 16.55 55.2 16.35C54.84 16.17 54.28 15.95 53.95 15.86C53.45 15.73 52.65 15.7 49.27 15.7L45.2 15.7L45.22 26.65ZM61.83 26.65L61.85 37.61L65.55 37.61C65.63 27.15 65.67 24.09 65.7 24.07C65.73 24.04 66.44 27.04 67.29 30.73C68.14 34.43 68.86 37.48 68.89 37.53C68.92 37.57 69.74 37.61 70.7 37.61C72.04 37.61 72.47 37.58 72.52 37.48C72.57 37.41 72.89 36.11 73.25 34.6C73.61 33.09 74.19 30.64 74.55 29.15C74.91 27.66 75.29 26.06 75.4 25.58C75.54 24.95 75.64 24.7 75.75 24.7C75.88 24.7 75.89 25.43 75.83 30.93C75.8 34.35 75.8 37.26 75.83 37.4L75.89 37.65C79.53 37.65 79.61 37.64 79.66 37.45C79.68 37.34 79.69 32.41 79.68 26.5L79.65 15.75L74.2 15.7C74.05 16.28 73.44 18.84 72.75 21.75C72.06 24.67 71.34 27.7 71.16 28.5C70.98 29.3 70.79 29.96 70.74 29.98C70.69 29.99 70.46 29.07 70.22 27.93C69.98 26.78 69.26 23.58 68.61 20.8L67.44 15.75L61.8 15.7L61.83 26.65ZM138.35 15.77C138.3 15.8 138.27 20.69 138.28 26.62C138.29 32.55 138.32 37.46 138.35 37.52C138.39 37.62 139.55 37.65 143.78 37.63L149.15 37.6L149.2 34.1L142.6 34.1L142.6 15.7C139.37 15.7 138.4 15.73 138.35 15.77ZM167.5 26.65L167.5 37.6C170.52 37.6 171.47 37.62 171.55 37.65C171.68 37.69 171.7 36.43 171.7 26.7L171.7 15.7L167.5 15.7L167.5 26.65Z" />
		<path class="shp2" d="M181.43 18.71C181.18 18.84 180.87 19.11 180.68 19.39C180.5 19.64 180.28 20.1 180.19 20.4C180.1 20.7 179.99 21.24 179.95 21.6C179.91 21.96 179.87 22.41 179.85 22.6C179.83 22.79 179.79 24.32 179.75 26C179.7 27.91 179.72 29.61 179.79 30.55C179.85 31.47 179.97 32.3 180.09 32.7C180.2 33.06 180.42 33.53 180.57 33.75C180.75 33.99 181.05 34.24 181.35 34.39C181.76 34.59 181.97 34.62 182.51 34.59C183.01 34.56 183.26 34.49 183.58 34.27C183.81 34.12 184.11 33.83 184.24 33.63C184.37 33.42 184.55 33 184.63 32.7C184.72 32.4 184.85 31.66 184.91 31.05C184.98 30.41 185.04 28.32 185.04 26.05C185.05 23.27 185.01 21.92 184.92 21.35C184.85 20.91 184.72 20.35 184.65 20.1C184.57 19.85 184.36 19.47 184.18 19.26C184 19.04 183.67 18.78 183.45 18.68C183.21 18.58 182.81 18.5 182.45 18.5C182.03 18.5 181.72 18.57 181.43 18.71ZM19.71 22.34L19.7 25.5C20.98 25.5 21.63 25.45 21.98 25.4C22.32 25.34 22.77 25.21 22.98 25.11C23.18 25 23.47 24.79 23.62 24.63C23.77 24.48 23.98 24.15 24.08 23.9C24.19 23.65 24.31 23.2 24.34 22.9C24.38 22.6 24.36 22.05 24.3 21.68C24.25 21.3 24.09 20.78 23.95 20.5C23.81 20.23 23.58 19.91 23.43 19.81C23.27 19.7 22.95 19.54 22.7 19.45C22.41 19.34 21.81 19.26 20.99 19.23L19.73 19.17L19.71 22.34ZM49.51 22.09L49.5 25C50.99 25 51.56 24.94 51.9 24.84C52.2 24.75 52.64 24.55 52.88 24.39C53.17 24.19 53.38 23.93 53.58 23.53C53.81 23.03 53.85 22.83 53.85 22.1C53.84 21.46 53.79 21.14 53.64 20.8C53.52 20.55 53.3 20.2 53.14 20.01C52.98 19.83 52.67 19.58 52.45 19.47C52.13 19.3 51.81 19.25 50.79 19.22L49.52 19.18L49.51 22.09ZM35.43 22.41C35.37 22.54 34.99 24.09 34.59 25.85C34.2 27.61 33.86 29.11 33.84 29.18C33.81 29.27 34.18 29.3 35.45 29.3C36.97 29.3 37.1 29.29 37.05 29.13C37.03 29.03 36.83 28.12 36.61 27.1C36.4 26.08 36.1 24.6 35.94 23.8C35.79 23 35.64 22.31 35.61 22.26C35.57 22.21 35.49 22.28 35.43 22.41ZM89.55 22.33C89.52 22.39 89.19 23.84 88.8 25.55C88.41 27.26 88.05 28.8 88 28.98L87.9 29.3C90.38 29.3 91.12 29.27 91.14 29.23C91.16 29.18 90.94 28.03 90.66 26.65C90.37 25.28 90.06 23.71 89.96 23.18C89.87 22.64 89.75 22.2 89.7 22.2C89.64 22.2 89.57 22.26 89.55 22.33ZM127.84 25.72L127.03 29.25C129.37 29.29 130.11 29.28 130.18 29.25C130.27 29.21 130.25 29 130.09 28.33C129.98 27.84 129.65 26.28 129.37 24.86C129.08 23.43 128.81 22.25 128.75 22.23C128.69 22.21 128.3 23.74 127.84 25.72Z" />
		<path class="shp3" d="M45.96 49.25C45.93 49.33 45.9 62.47 45.9 78.45L45.9 107.5L10.45 107.5C10.57 120.56 10.62 124.73 10.65 125.2C10.68 125.67 10.72 126.37 10.75 126.75C10.77 127.13 10.8 127.66 10.8 127.93L10.8 128.4L45.9 128.4L45.9 201.15C50.59 205.81 52.56 207.73 53.3 208.41C54.05 209.09 55.35 210.26 56.2 211C57.05 211.75 58.29 212.81 58.95 213.36C59.61 213.91 60.83 214.9 61.65 215.57C62.48 216.23 63.94 217.36 64.9 218.09C65.86 218.81 66.71 219.41 66.78 219.4C66.87 219.4 66.9 210.23 66.9 173.9L66.9 128.4L102.2 128.4L102.2 107.5L66.9 107.5C66.9 62.47 66.88 49.33 66.85 49.25C66.81 49.12 65.56 49.1 56.41 49.1C47.26 49.1 46.01 49.12 45.96 49.25Z" />
		<path class="shp0" d="M10.6 78.35L10.6 107.5L45.9 107.5L45.95 49.2L10.6 49.2L10.6 78.35ZM66.88 78.35L66.9 107.5L102.2 107.5L102.2 49.2L66.85 49.2L66.88 78.35Z" />
		<path class="shp2" d="M116.8 140.88C116.8 191.3 116.83 232.58 116.87 232.62C116.91 232.66 117.33 232.49 117.8 232.23C118.27 231.98 119.28 231.43 120.05 231.02C120.82 230.61 122.35 229.75 123.45 229.12C124.55 228.49 126.26 227.47 127.25 226.87C128.24 226.26 129.56 225.43 130.18 225.03L131.3 224.3L131.3 49.2L116.8 49.2L116.8 140.88ZM146.1 131.2C146.1 176.3 146.13 213.2 146.18 213.2C146.22 213.2 146.86 212.68 147.6 212.04C148.34 211.4 149.78 210.14 150.8 209.23C151.82 208.31 154.42 205.8 156.58 203.63L160.5 199.7L160.5 49.2L146.1 49.2L146.1 131.2ZM175 115.68C175 154.45 175.03 182.11 175.09 182.05C175.13 182 175.76 181.1 176.48 180.05C177.19 179 178.25 177.41 178.82 176.5C179.4 175.59 180.25 174.2 180.72 173.4C181.19 172.6 181.97 171.23 182.46 170.35C182.94 169.47 183.86 167.67 184.51 166.35C185.15 165.03 185.98 163.25 186.35 162.4C186.72 161.55 187.3 160.13 187.65 159.25C187.99 158.37 188.53 156.92 188.84 156.03L189.4 154.4L189.4 49.2L175 49.2L175 115.68Z" />
		<path class="shp0" d="M10.9 128.83C10.9 129.06 10.97 130.04 11.05 131C11.13 131.96 11.27 133.38 11.36 134.15C11.44 134.92 11.64 136.5 11.81 137.65C11.97 138.81 12.26 140.63 12.46 141.7C12.65 142.77 13.01 144.55 13.26 145.65C13.51 146.75 13.84 148.17 14.01 148.8C14.18 149.43 14.5 150.58 14.72 151.35C14.94 152.12 15.35 153.45 15.62 154.3C15.9 155.15 16.41 156.62 16.75 157.55C17.1 158.49 17.6 159.77 17.85 160.4C18.11 161.03 18.66 162.32 19.07 163.25C19.48 164.19 20.36 166.01 21.01 167.3C21.66 168.59 22.65 170.46 23.21 171.45C23.76 172.44 24.72 174.06 25.33 175.05C25.94 176.04 26.93 177.59 27.53 178.5C28.14 179.41 29.06 180.76 29.58 181.5C30.11 182.24 31.14 183.66 31.88 184.65C32.63 185.64 34.01 187.42 34.95 188.6C35.9 189.78 37.41 191.61 38.3 192.65C39.2 193.7 40.52 195.2 41.23 196C41.95 196.8 43.28 198.25 44.19 199.23C45.1 200.21 45.86 201 45.88 201C45.89 201 45.9 184.67 45.9 164.7L45.9 128.4L10.9 128.4L10.9 128.83ZM66.9 173.98L66.89 219.55C69.96 221.74 71.59 222.86 72.5 223.47C73.41 224.07 74.89 225.04 75.8 225.62C76.71 226.19 78.15 227.09 79 227.6C79.85 228.11 81.36 228.99 82.35 229.55C83.34 230.11 84.76 230.9 85.5 231.3C86.24 231.7 88.09 232.64 89.6 233.39C91.11 234.14 93.12 235.1 94.05 235.52C94.99 235.94 96.18 236.46 96.7 236.68C97.22 236.9 98.24 237.32 98.95 237.6C99.67 237.89 100.68 238.27 101.2 238.46C101.72 238.65 102.16 238.8 102.18 238.8C102.19 238.8 102.2 213.96 102.2 183.6L102.2 128.4L66.9 128.4L66.9 173.98Z" />
	</g>
</svg>